<svg width="21" height="14" viewBox="0 0 21 14" fill="none" xmlns="http://www.w3.org/2000/svg">
<path d="M18.7951 2.43524C17.878 1.78163 16.5964 1.25452 14.9738 0.853916C11.8463 0.0843374 8.31893 0 6.94327 0C3.39242 0 0.5 2.59337 0.5 5.77711V8.22289C0.5 11.4066 3.39242 14 6.94327 14C8.5776 14 9.81217 13.5361 11.1173 13.0512C12.4694 12.5452 13.8568 12.0286 15.8204 12.0286C18.4071 12.0286 20.5 10.1416 20.5 7.83283V5.38705C20.5 4.23795 19.9239 3.24699 18.7951 2.43524ZM18.4659 8.42319C18.6188 8.56024 18.8657 8.57078 19.0185 8.43373C19.2889 8.21235 19.5123 7.95934 19.7122 7.69578V7.83283C19.7122 9.76205 17.9603 11.3328 15.8086 11.3328C13.6922 11.3328 12.2225 11.881 10.8116 12.4081C9.58877 12.872 8.42475 13.3042 6.94327 13.3042C3.94503 13.3042 1.4759 11.2063 1.28777 8.5497C2.38125 10.3419 4.50941 11.5542 6.94327 11.5542C8.5776 11.5542 9.81217 11.0904 11.1173 10.6054C12.4694 10.0994 13.8568 9.58283 15.8204 9.58283C15.9615 9.58283 16.1143 9.57229 16.2554 9.56175C16.4671 9.54066 16.6317 9.37199 16.6082 9.18223C16.5847 8.99247 16.3965 8.84488 16.1849 8.86596C16.0673 8.87651 15.938 8.87651 15.8204 8.87651C13.704 8.87651 12.2343 9.4247 10.8233 9.95181C9.58877 10.4262 8.42475 10.8584 6.94327 10.8584C3.8157 10.8584 1.27601 8.58133 1.27601 5.77711C1.27601 2.97289 3.8157 0.695783 6.94327 0.695783C8.28366 0.695783 11.7287 0.780121 14.7622 1.52861C18.0426 2.34036 19.7122 3.63705 19.7122 5.38705C19.7122 6.34639 19.2654 7.2741 18.4777 7.92771C18.3248 8.06476 18.3248 8.28614 18.4659 8.42319Z" fill="#961914"/>
<path d="M18.1488 8.64452C18.0548 8.46531 17.8196 8.39151 17.6315 8.47585H17.6197C17.4316 8.56019 17.3493 8.77103 17.4434 8.95025C17.5139 9.07676 17.655 9.14001 17.7961 9.14001C17.8549 9.14001 17.9137 9.12947 17.9725 9.10838C18.1606 9.02404 18.2429 8.82374 18.1488 8.64452Z" fill="#961914"/>
<path d="M9.76481 1.49691H9.7413C9.52966 1.48636 9.34153 1.62341 9.31802 1.82371C9.30626 2.01347 9.45911 2.18215 9.67075 2.20323H9.69427C9.70603 2.20323 9.71778 2.20323 9.72954 2.20323C9.92942 2.20323 10.1058 2.06618 10.1175 1.87642C10.1411 1.68667 9.97646 1.51799 9.76481 1.49691Z" fill="#961914"/>
<path d="M18.689 4.44879C18.301 3.753 17.4427 3.16264 16.1258 2.6777C15.0676 2.28764 13.9036 2.03463 13.1158 1.89758C12.6455 1.81324 12.1517 1.73945 11.6461 1.6762C11.4344 1.65511 11.2346 1.79216 11.211 1.98192C11.1758 2.17168 11.3286 2.35089 11.5403 2.37198C12.0341 2.43523 12.5044 2.50903 12.9629 2.58282C15.6437 3.05722 17.4779 3.84788 17.9953 4.75451C18.1011 4.94427 18.1599 5.15511 18.1599 5.38704C18.1599 6.54668 17.1134 7.48493 15.8201 7.48493C14.515 7.48493 13.2569 7.67469 11.9518 8.06475C11.3874 8.23342 10.8465 8.43372 10.3174 8.63403C9.96471 8.76053 9.61198 8.89758 9.24749 9.01354C8.35389 9.32981 7.66018 9.45632 6.94296 9.45632C4.68546 9.45632 2.83949 7.81174 2.83949 5.7771C2.83949 3.753 4.67371 2.09788 6.94296 2.09788C7.38975 2.09788 7.83655 2.10842 8.27159 2.11897C8.34214 2.11897 8.42444 2.11897 8.49499 2.12951C8.71839 2.14005 8.89475 1.99246 8.90651 1.79216C8.91827 1.6024 8.75366 1.43373 8.53026 1.42318C8.44796 1.42318 8.37741 1.41264 8.2951 1.41264C7.84831 1.41264 7.38975 1.4021 6.94296 1.4021C4.25043 1.4021 2.06348 3.36294 2.06348 5.7771C2.06348 8.19126 4.25043 10.1521 6.94296 10.1521C7.766 10.1521 8.53026 10.0045 9.52967 9.66716C9.89416 9.5512 10.2587 9.41415 10.6114 9.2771C11.1287 9.08734 11.6578 8.88704 12.1869 8.72891C13.4097 8.35993 14.5855 8.18071 15.8083 8.18071C17.525 8.18071 18.9241 6.9262 18.9241 5.38704C18.9359 5.03915 18.8536 4.73342 18.689 4.44879Z" fill="#961914"/>
<path d="M7.31906 2.7937C6.22558 2.7937 5.34375 3.52111 5.34375 4.40665C5.34375 5.29219 6.22558 6.00906 7.31906 6.00906C8.41253 6.00906 9.29437 5.28165 9.29437 4.39611C9.29437 3.51057 8.41253 2.7937 7.31906 2.7937ZM7.31906 5.31328C6.66062 5.31328 6.11976 4.90213 6.11976 4.40665C6.11976 3.90063 6.66062 3.50003 7.31906 3.50003C7.9775 3.50003 8.51835 3.90063 8.51835 4.40665C8.51835 4.91268 7.9775 5.31328 7.31906 5.31328Z" fill="#961914"/>
</svg>
