<svg width="21" height="20" viewBox="0 0 21 20" fill="none" xmlns="http://www.w3.org/2000/svg">
<path d="M20.5 11.2757C20.5 9.87654 19.818 8.5244 18.6775 7.68959C18.4424 7.51323 18.1602 7.41917 17.8663 7.41917C17.5018 7.41917 17.1608 7.56026 16.9139 7.80717C16.8668 7.7719 16.8198 7.72487 16.7728 7.68959C16.5964 7.5485 16.3848 7.4662 16.1614 7.44268L16.3025 5.87889C16.3025 5.84362 16.3025 5.80835 16.3025 5.76132C16.3025 5.06761 15.7381 4.51499 15.0561 4.51499H14.9738C14.2801 4.51499 13.7275 5.07937 13.7275 5.76132C13.7275 5.79659 13.7275 5.83186 13.7275 5.87889L13.8686 7.45444C13.6687 7.48971 13.4688 7.57202 13.3042 7.70135C13.2454 7.74838 13.1984 7.79541 13.1396 7.84245C13.1161 7.80717 13.0808 7.78366 13.0456 7.76014C13.0691 7.64256 13.0808 7.52499 13.0808 7.41917C13.0808 7.00764 12.9515 6.61964 12.7163 6.29042C12.9515 5.9612 13.0808 5.57319 13.0808 5.16167C13.0808 4.05644 12.152 3.16285 11.035 3.23339C10.8233 2.6455 10.3413 2.18695 9.75338 2.02234C9.35362 1.52851 8.76573 1.25808 8.13081 1.29336C7.86038 0.529101 7.14315 0 6.30835 0C5.60288 0 4.96796 0.376249 4.62698 0.964139C3.78042 0.999412 3.03968 1.59906 2.82804 2.4221C1.82863 2.79835 1.14668 3.76249 1.14668 4.83245C1.14668 5.69077 1.56996 6.4903 2.27543 6.96061C2.16961 7.20753 2.11082 7.47795 2.11082 7.73663C2.11082 8.31276 2.36949 8.85362 2.81628 9.21811C2.78101 9.37096 2.7575 9.52381 2.7575 9.67666C2.7575 10.6643 3.49824 11.4874 4.46238 11.5932L5.1796 13.592C4.81511 13.8624 4.49765 14.2034 4.26249 14.5797L2.56937 14.2034C2.51058 14.1917 2.44004 14.1799 2.36949 14.1799C1.87566 14.1799 1.46414 14.5797 1.46414 15.0852V15.2146C1.46414 15.3086 1.4759 15.3909 1.51117 15.4733H1.46414C0.935038 15.485 0.5 15.92 0.5 16.4491C0.5 16.9782 0.935038 17.4133 1.46414 17.4133H1.51117C1.48765 17.4956 1.46414 17.5779 1.46414 17.672V17.8013C1.46414 18.2951 1.8639 18.7066 2.36949 18.7066C2.44004 18.7066 2.49882 18.6949 2.56937 18.6831L4.26249 18.3069C4.88566 19.318 6.00265 20 7.27249 20H7.34303C7.5194 20 7.70753 19.9882 7.88389 19.953L18.948 18.2481C19.8416 18.107 20.5 17.3545 20.5 16.4374C20.5 15.7084 20.0767 15.0852 19.4536 14.7913C20.1238 13.9918 20.5 12.9806 20.5 11.9342V11.2757ZM16.3848 8.20694C17.3489 8.94768 17.925 10.1117 17.925 11.3463V12.5338C17.925 13.1922 17.7604 13.8389 17.4547 14.4151L14.868 14.0153C14.7622 13.545 14.7034 13.0747 14.7034 12.5926V11.2757C14.7034 10.9465 14.7387 10.629 14.7857 10.2998C14.868 10.3116 14.9386 10.3116 15.0209 10.3116C15.938 10.3116 16.6317 9.90006 16.6317 9.34744C16.6317 9.04174 16.42 8.77131 16.0556 8.59494L16.1026 8.0776C16.1966 8.10112 16.2907 8.13639 16.3848 8.20694ZM14.9738 5.16167H15.0561C15.3854 5.16167 15.6558 5.4321 15.6558 5.76132C15.6558 5.78483 15.6558 5.79659 15.6558 5.82011L15.3618 9.04174L15.6088 9.12405C15.8909 9.21811 15.985 9.33568 15.985 9.3592C15.985 9.44151 15.644 9.67666 15.0209 9.67666C14.3977 9.67666 14.0567 9.42975 14.0567 9.3592C14.0567 9.33568 14.1508 9.21811 14.433 9.12405L14.6799 9.04174L14.3742 5.82011C14.3742 5.79659 14.3742 5.78483 14.3742 5.76132C14.3742 5.4321 14.6446 5.16167 14.9738 5.16167ZM13.9274 8.08936L13.9744 8.59494C13.6099 8.77131 13.3983 9.04174 13.3983 9.34744C13.3983 9.70018 13.6922 9.99412 14.139 10.1705C14.0802 10.535 14.045 10.9112 14.045 11.2757V12.5808C14.045 13.0276 14.092 13.4627 14.1743 13.8977L12.2695 13.6038C12.1637 13.251 12.1049 12.8865 12.1049 12.5103V11.3463C12.1049 10.1235 12.6928 8.94768 13.6805 8.20694C13.7628 8.14815 13.8451 8.11287 13.9274 8.08936ZM10.4471 13.3333C10.2707 12.8865 10.1767 12.428 10.1767 11.9459V11.2757C10.1767 10.0764 10.7646 8.92416 11.7404 8.20694C11.858 8.11287 12.0109 8.06584 12.1637 8.06584C12.3636 8.06584 12.54 8.14815 12.6693 8.27748C11.9051 9.11229 11.47 10.2058 11.47 11.3463V12.5338C11.47 12.863 11.5053 13.1922 11.5758 13.5215L10.4471 13.3333ZM10.4706 3.64491L10.5294 3.97413L10.8586 3.90359C10.9644 3.88007 11.0585 3.86831 11.1408 3.86831C11.858 3.86831 12.4342 4.44444 12.4342 5.16167C12.4342 5.50265 12.3048 5.82011 12.0697 6.06702L11.8463 6.29042L12.0697 6.51382C12.3048 6.76073 12.4342 7.07819 12.4342 7.41917C12.4342 7.43092 12.4342 7.44268 12.4342 7.44268C12.3401 7.43092 12.2578 7.41917 12.1637 7.41917C11.8698 7.41917 11.5876 7.51323 11.3524 7.68959C10.7646 8.11287 10.306 8.68901 9.98854 9.32393C9.87096 8.94768 9.74162 8.58319 9.61229 8.23045C9.90623 6.65491 11.0115 5.74956 11.0232 5.7378L10.8233 5.47913L10.6235 5.23222C10.5764 5.26749 9.70635 5.98471 9.21252 7.26631C8.54233 5.72604 7.90741 4.72663 7.87213 4.66784L7.31952 5.00882C7.33128 5.02058 7.8251 5.79659 8.38948 7.03116C7.4371 6.66667 6.33186 6.77249 6.27307 6.77249L6.33186 7.41917C6.81393 7.37213 8.18959 7.39565 8.83627 8.05409C9.05967 8.6067 9.28307 9.21811 9.48295 9.87654C8.50705 9.3592 7.33128 9.3592 7.27249 9.3592V9.99412C7.28425 9.99412 8.71869 10.0059 9.57701 10.6761C9.5535 10.876 9.52998 11.0758 9.52998 11.2757V11.9577C9.52998 12.3927 9.60053 12.816 9.71811 13.2275L7.88389 12.9453C7.78983 12.9336 7.69577 12.9218 7.60171 12.9101C6.88448 12.9101 6.30835 12.3222 6.30835 11.6049C6.30835 11.4521 6.34362 11.2992 6.40241 11.1464L6.49647 10.8995L6.26132 10.7701C5.88507 10.535 5.66167 10.1235 5.66167 9.67666C5.66167 9.41799 5.73222 9.17108 5.87331 8.95944L6.07319 8.65373L5.75573 8.50088C5.0973 8.17166 4.69753 7.51323 4.69753 6.77249C4.69753 5.91417 5.27366 5.14991 6.09671 4.91476L6.29659 4.85597L6.33186 4.64433C6.41417 4.02116 6.96678 3.55085 7.60171 3.55085C7.61346 3.55085 7.62522 3.55085 7.63698 3.55085C7.66049 3.55085 7.68401 3.56261 7.70753 3.56261L7.94268 3.58613L8.02499 3.36273C8.22487 2.88066 8.69518 2.57496 9.21252 2.57496C9.83568 2.57496 10.3648 3.03351 10.4706 3.64491ZM4.92093 10.97H4.69753C3.98031 10.97 3.40417 10.3939 3.40417 9.67666C3.40417 9.52381 3.43945 9.37096 3.49824 9.21811L3.5923 8.97119L3.35714 8.8301C2.98089 8.59494 2.7575 8.18342 2.7575 7.73663C2.7575 7.47795 2.82804 7.23104 2.96914 7.0194L3.16902 6.7137L2.85156 6.56085C2.19312 6.23163 1.79336 5.57319 1.79336 4.83245C1.79336 3.97413 2.36949 3.20988 3.19253 2.97472L3.39242 2.91593L3.42769 2.70429C3.52175 2.08113 4.06261 1.59906 4.69753 1.59906C4.70929 1.59906 4.72105 1.59906 4.7328 1.59906C4.75632 1.59906 4.77984 1.59906 4.80335 1.61082L5.03851 1.63433L5.13257 1.42269C5.32069 0.952381 5.79101 0.646678 6.30835 0.646678C6.93151 0.646678 7.46061 1.09347 7.57819 1.71664L7.63698 2.04586L7.9662 1.97531C8.07202 1.95179 8.15432 1.94004 8.24838 1.94004C8.40124 1.94004 8.54233 1.97531 8.67166 2.02234C8.18959 2.15168 7.77807 2.46914 7.53116 2.90417C6.67284 2.92769 5.94386 3.53909 5.73222 4.36214C4.7328 4.72663 4.05085 5.69077 4.05085 6.77249C4.05085 7.63081 4.47413 8.43034 5.1796 8.90065C5.07378 9.14756 5.01499 9.40623 5.01499 9.67666C5.01499 10.2528 5.27366 10.7937 5.72046 11.1581C5.68519 11.311 5.66167 11.4638 5.66167 11.6167C5.66167 12.1811 5.90858 12.6984 6.29659 13.0511C6.10847 13.1099 5.92034 13.1805 5.74397 13.2628L4.92093 10.97ZM2.11082 15.2263V15.097C2.11082 14.9324 2.26367 14.8148 2.42828 14.8501L3.96855 15.1911C3.92152 15.2851 3.88624 15.3792 3.86273 15.485H2.36949C2.2284 15.485 2.11082 15.3674 2.11082 15.2263ZM1.14668 16.4491C1.14668 16.2728 1.28777 16.1317 1.46414 16.1317H2.36949H3.74515C3.73339 16.2375 3.73339 16.3433 3.73339 16.4491C3.73339 16.555 3.74515 16.6608 3.74515 16.7666H2.36949H1.46414C1.28777 16.7666 1.14668 16.6255 1.14668 16.4491ZM2.42828 18.06C2.27543 18.0952 2.11082 17.9659 2.11082 17.8131V17.6837C2.11082 17.5426 2.2284 17.425 2.36949 17.425H3.86273C3.88624 17.5309 3.92152 17.6249 3.95679 17.719L2.42828 18.06ZM19.8533 16.4491C19.8533 17.037 19.43 17.5309 18.8539 17.6132L7.78983 19.318C7.64874 19.3416 7.49589 19.3533 7.34303 19.3533H7.27249C5.67343 19.3533 4.36831 18.0482 4.36831 16.4491C4.36831 14.8501 5.67343 13.545 7.27249 13.545H7.34303C7.48413 13.545 7.63698 13.5567 7.78983 13.5802L18.8539 15.2851C19.43 15.3674 19.8533 15.8613 19.8533 16.4491ZM19.8533 11.9459C19.8533 12.9336 19.4536 13.8977 18.7481 14.6149L18.1014 14.5209C18.3954 13.8977 18.5482 13.2275 18.5482 12.5338V11.3463C18.5482 10.2058 18.1132 9.10053 17.3607 8.26573C17.49 8.14815 17.6664 8.06584 17.8545 8.06584C18.0073 8.06584 18.1602 8.11287 18.2778 8.20694C19.2537 8.92416 19.8416 10.0764 19.8416 11.2757L19.8533 11.9459Z" fill="#961914"/>
<path d="M6.95508 14.8384H7.60176V18.06H6.95508V14.8384Z" fill="#961914"/>
<path d="M9.53027 14.8384H10.177V18.06H9.53027V14.8384Z" fill="#961914"/>
<path d="M12.1162 14.8384H12.7629V18.06H12.1162V14.8384Z" fill="#961914"/>
<path d="M14.6914 15.485H15.3381V17.425H14.6914V15.485Z" fill="#961914"/>
<path d="M17.2666 15.8025H17.9133V17.0958H17.2666V15.8025Z" fill="#961914"/>
</svg>
