<svg width="21" height="15" viewBox="0 0 21 15" fill="none" xmlns="http://www.w3.org/2000/svg">
<path d="M14.1344 0.357143C13.8663 0.357143 13.6828 0.559006 13.6828 0.854037C13.6828 1.14907 13.8663 1.35093 14.1344 1.35093C17.1408 1.35093 19.5967 1.4441 19.5967 2.25155C19.5967 4.20807 15.0942 6.39752 12.4548 7.65528C12.1302 7.36025 11.9044 6.66149 11.9044 6.10248C11.9044 5.54348 12.0879 5.04658 12.3984 4.70497C12.8924 4.20807 13.1747 3.40062 13.1747 2.6087C13.1747 1.66149 12.723 0.807453 11.9467 0.403727C11.9044 0.357143 11.8056 0.357143 11.7632 0.357143C11.1422 0.295031 10.4506 0.248447 9.81546 0.201863C8.771 0.0931677 7.68419 0 6.68208 0C3.73218 0 2.27841 1.4441 1.54446 2.65528C1.05046 3.49379 0.5 5.04658 0.5 6.45963C0.5 7.81056 1.05046 9.56522 1.45977 10.9627C1.54446 11.2112 1.60092 11.4596 1.6856 11.6615C1.77029 11.9565 1.86909 12.2516 1.91143 12.5C2.32075 13.8975 2.58892 15 3.81687 15C4.49435 15 5.27064 14.1925 6.58327 12.7484C7.45836 11.8012 8.46048 10.7609 9.09562 10.4037C9.54728 10.1553 10.0977 9.90683 10.6905 9.65839C10.9164 9.54969 11.0011 9.25466 10.9164 9.00621C10.8317 8.75776 10.5494 8.64907 10.3236 8.75776C9.73077 9.0528 9.18031 9.30124 8.72865 9.50311C7.91002 9.90683 6.9079 11.0093 5.96224 12.0497C5.2283 12.8106 4.1415 14.0062 3.81687 14.0062C3.36521 14.0062 3.18172 13.6491 2.81475 12.205C2.73006 11.9565 2.68772 11.6615 2.58892 11.3509C2.50423 11.1025 2.44778 10.854 2.36309 10.6056C1.95378 9.25466 1.45977 7.6087 1.45977 6.45963C1.45977 5.15528 2.01023 3.80435 2.32075 3.26087C3.18172 1.75466 4.67784 0.993789 6.72442 0.993789C7.68419 0.993789 8.771 1.08696 9.81546 1.19565C10.4506 1.24224 11.0857 1.28882 11.7209 1.35093C12.1302 1.59938 12.356 2.04969 12.356 2.6087C12.356 3.1677 12.1725 3.6646 11.862 4.00621C11.368 4.50311 11.0999 5.29503 11.0999 6.10248C11.0999 6.84783 11.4245 8.15217 12.3278 8.64907C12.4689 8.69565 12.596 8.69565 12.6948 8.64907C16.6044 6.75466 20.5141 4.70497 20.5141 2.25155C20.5 0.450311 18.1853 0.357143 14.1344 0.357143Z" fill="#961914"/>
</svg>
