<svg width="21" height="19" viewBox="0 0 21 19" fill="none" xmlns="http://www.w3.org/2000/svg">
<path d="M20.0887 5.82541C20.3582 5.46132 20.5 5.04329 20.5 4.5983C20.5 3.41164 19.4929 2.45422 18.2447 2.45422C17.7766 2.45422 17.3369 2.58907 16.9539 2.84528C16.5709 2.58907 16.1312 2.45422 15.6631 2.45422C15.195 2.45422 14.7553 2.58907 14.3723 2.84528C14.0035 2.60255 13.5496 2.45422 13.0816 2.45422C12.6135 2.45422 12.1738 2.58907 11.7908 2.84528C11.4078 2.58907 10.9539 2.45422 10.5 2.45422C10.0177 2.45422 9.57801 2.60255 9.20922 2.84528C8.82624 2.58907 8.38652 2.45422 7.91844 2.45422C7.45035 2.45422 7.01064 2.58907 6.62766 2.84528V1.05181L4.78369 0H4.0461V2.84528C3.45035 3.24982 3.08156 3.89709 3.08156 4.5983C3.08156 5.78495 4.08865 6.74237 5.33688 6.74237C5.80496 6.74237 6.24468 6.60752 6.62766 6.35131C7.01064 6.60752 7.45035 6.74237 7.91844 6.74237C8.38652 6.74237 8.84042 6.60752 9.20922 6.35131C9.57801 6.60752 10.0319 6.74237 10.5 6.74237C10.9681 6.74237 11.4078 6.60752 11.7908 6.35131C12.1596 6.60752 12.6135 6.74237 13.0816 6.74237C13.5496 6.74237 13.9894 6.60752 14.3723 6.35131C14.7411 6.60752 15.1809 6.74237 15.6489 6.74237C15.7624 6.74237 15.8901 6.72889 16.0035 6.7154C15.9894 6.82328 15.9752 6.93116 15.9752 7.05252C15.9752 7.17388 15.9894 7.28176 16.0035 7.38964C15.4362 7.30873 14.8404 7.43009 14.3582 7.75373C14.0035 7.49752 13.5496 7.36267 13.0816 7.36267C12.6135 7.36267 12.1738 7.49752 11.7908 7.75373C11.4078 7.49752 10.9539 7.36267 10.5 7.36267C10.0319 7.36267 9.5922 7.49752 9.20922 7.75373C8.84042 7.49752 8.40071 7.36267 7.91844 7.36267C7.45035 7.36267 6.99645 7.49752 6.62766 7.75373C6.24468 7.49752 5.80496 7.36267 5.33688 7.36267C4.86879 7.36267 4.42908 7.49752 4.0461 7.75373C3.66312 7.49752 3.2234 7.36267 2.75532 7.36267C1.50709 7.36267 0.5 8.32008 0.5 9.50674C0.5 9.96522 0.641844 10.3833 0.911347 10.7339C0.641844 11.0845 0.5 11.516 0.5 11.961C0.5 12.406 0.641844 12.824 0.911347 13.1881C0.656028 13.5252 0.5 13.9567 0.5 14.4017C0.5 15.5884 1.50709 16.5458 2.75532 16.5458C3.2234 16.5458 3.6773 16.3974 4.0461 16.1547C4.42908 16.4109 4.86879 16.5458 5.33688 16.5458C5.80496 16.5458 6.24468 16.4109 6.62766 16.1547C7.01064 16.4109 7.45035 16.5458 7.91844 16.5458C8.38652 16.5458 8.84042 16.3974 9.20922 16.1547C9.5922 16.4109 10.0319 16.5458 10.5 16.5458C10.9681 16.5458 11.4078 16.4109 11.7908 16.1547C12.1596 16.3974 12.6135 16.5458 13.0816 16.5458C13.5496 16.5458 13.9894 16.4109 14.3723 16.1547V17.9482L16.2163 19H16.9539V16.1547C17.5496 15.7502 17.9184 15.1029 17.9184 14.4017C17.9184 13.215 16.9113 12.2576 15.6631 12.2576C15.195 12.2576 14.7553 12.3925 14.3723 12.6487C13.9894 12.3925 13.5355 12.2576 13.0816 12.2576C12.6135 12.2576 12.1738 12.3925 11.7908 12.6487C11.422 12.406 10.9823 12.2576 10.5 12.2576C10.0319 12.2576 9.5922 12.3925 9.20922 12.6487C8.82624 12.3925 8.38652 12.2576 7.91844 12.2576C7.45035 12.2576 7.01064 12.3925 6.62766 12.6487C6.24468 12.3925 5.80496 12.2576 5.33688 12.2576C5.2234 12.2576 5.09574 12.2711 4.98227 12.2846C4.99645 12.1767 5.01064 12.0688 5.01064 11.9475C5.01064 11.8396 4.99645 11.7182 4.98227 11.6104C5.09574 11.6238 5.20922 11.6373 5.33688 11.6373C5.81915 11.6373 6.25887 11.489 6.62766 11.2463C6.99645 11.516 7.45035 11.6508 7.91844 11.6508C8.38652 11.6508 8.82624 11.516 9.20922 11.2598C9.57801 11.5025 10.0319 11.6508 10.5 11.6508C10.9681 11.6508 11.4078 11.516 11.7908 11.2598C12.1738 11.516 12.6135 11.6508 13.0816 11.6508C13.5496 11.6508 13.9894 11.516 14.3723 11.2598C14.7411 11.5025 15.195 11.6508 15.6631 11.6508C16.1454 11.6508 16.5851 11.5025 16.9539 11.2598C17.3369 11.516 17.7766 11.6508 18.2447 11.6508C19.4929 11.6508 20.5 10.6934 20.5 9.50674C20.5 9.06175 20.3582 8.64372 20.0887 8.27963C20.3582 7.91554 20.5 7.49752 20.5 7.05252C20.4858 6.59404 20.344 6.17601 20.0887 5.82541ZM19.4362 8.4819C19.7057 8.76508 19.8475 9.12917 19.8475 9.50674C19.8475 10.3563 19.1241 11.044 18.2305 11.044C17.9468 11.044 17.6631 10.9631 17.422 10.8417C17.7199 10.4776 17.9043 10.0192 17.9043 9.52023H17.266C17.266 10.3698 16.5426 11.0575 15.6489 11.0575C14.9681 11.0575 14.3582 10.6529 14.1312 10.0326L13.5213 10.2214C13.6064 10.4507 13.7199 10.6529 13.8759 10.8282C13.2943 11.1384 12.5142 11.0845 12.0035 10.6395L11.7908 10.4642L11.5638 10.6395C11.2801 10.8957 10.8972 11.0305 10.5 11.0305C9.81915 11.0305 9.2234 10.626 8.98227 10.0192L8.37234 10.2349C8.45745 10.4507 8.57092 10.6529 8.72695 10.8282C8.2305 11.0845 7.60638 11.0845 7.12411 10.8282C7.4078 10.4642 7.5922 10.0057 7.5922 9.50674H6.9539C6.9539 10.3563 6.2305 11.044 5.33688 11.044C5.12411 11.044 4.92553 11.0035 4.74113 10.9361C4.55674 10.6125 4.28723 10.3428 3.96099 10.1405L3.60638 10.6529C4.07447 10.9361 4.35816 11.4216 4.35816 11.9475C4.35816 12.1498 4.3156 12.3385 4.24468 12.5138C3.54965 12.8779 3.06738 13.5791 3.06738 14.3882H3.70567C3.70567 13.5387 4.42908 12.851 5.32269 12.851C5.71986 12.851 6.10284 12.9858 6.40071 13.242L6.61347 13.4308L6.82624 13.242C7.35106 12.8375 8.13121 12.77 8.72695 13.0802C8.41489 13.4578 8.24468 13.9163 8.24468 14.4017H8.88298C8.88298 13.9702 9.08156 13.5522 9.42199 13.2555C9.71986 13.0128 10.1028 12.8779 10.5 12.8779C11.3936 12.8779 12.117 13.5656 12.117 14.4152H12.7553C12.7553 13.9163 12.5709 13.4578 12.273 13.0937C12.8546 12.7835 13.6348 12.8375 14.1596 13.269L14.3723 13.4578L14.5851 13.269C14.883 13.0128 15.266 12.8779 15.6631 12.8779C16.5567 12.8779 17.2801 13.5656 17.2801 14.4152C17.2801 14.9546 16.9681 15.467 16.4716 15.7367L16.3156 15.8311V18.3527L15.0248 17.6111V15.8311L14.8688 15.7367C14.7695 15.6828 14.6844 15.6153 14.5993 15.5479L14.3865 15.3591L14.1738 15.5479C13.8759 15.8041 13.4929 15.939 13.0957 15.939C12.4291 15.939 11.8191 15.5479 11.5922 14.9546L10.9823 15.1703C11.0674 15.3726 11.1809 15.5614 11.3227 15.7367C10.8262 15.9929 10.2021 15.9929 9.71986 15.7367C9.87589 15.5479 9.98936 15.3456 10.0745 15.1164L9.43617 14.9141C9.20922 15.5344 8.59929 15.939 7.91844 15.939C7.52128 15.939 7.1383 15.8041 6.84043 15.5479L6.62766 15.3591L6.41489 15.5479C5.90425 15.9794 5.12411 16.0468 4.54255 15.7232C4.69858 15.5344 4.81206 15.3321 4.89716 15.1029L4.28723 14.9006C4.06028 15.5209 3.45035 15.9255 2.7695 15.9255C1.87589 15.9255 1.15248 15.2378 1.15248 14.3882C1.15248 13.5387 1.87589 12.851 2.7695 12.851V12.2576C2.24468 12.2576 1.76241 12.4329 1.37943 12.7161C1.23759 12.4869 1.16667 12.2172 1.16667 11.9475C1.16667 11.6778 1.23759 11.4081 1.37943 11.1788C1.6773 11.3946 2.01773 11.5429 2.41489 11.6104L2.51418 11.0035C1.71986 10.8957 1.1383 10.2619 1.1383 9.50674C1.1383 8.6572 1.8617 7.96948 2.75532 7.96948C3.15248 7.96948 3.53546 8.10433 3.83333 8.36054L4.0461 8.54933L4.25887 8.36054C4.7695 7.92903 5.54964 7.8616 6.13121 8.18524C5.98936 8.36054 5.87589 8.56281 5.79078 8.79205L6.40071 8.99432C6.62766 8.38751 7.23759 7.96948 7.91844 7.96948C8.81206 7.96948 9.53546 8.6572 9.53546 9.50674H10.1738C10.1738 9.00781 9.98936 8.54933 9.69149 8.18524C10.273 7.87509 11.0532 7.92903 11.5638 8.36054L11.7766 8.54933L12.0035 8.36054C12.3014 8.10433 12.6844 7.96948 13.0816 7.96948C13.961 7.96948 14.6844 8.6572 14.6844 9.50674H15.3227C15.3227 9.00781 15.1383 8.54933 14.8404 8.18524C15.266 7.956 15.7908 7.91554 16.2589 8.09084C16.344 8.22569 16.4433 8.36054 16.5567 8.4819L17.039 8.07736C16.7695 7.79418 16.6277 7.43009 16.6277 7.05252C16.6277 6.85025 16.6702 6.66146 16.7411 6.47268C16.883 6.39177 17.0248 6.29737 17.1525 6.1895L16.7269 5.73101C16.4291 5.98722 16.0461 6.12207 15.6489 6.12207C14.9681 6.12207 14.3582 5.71753 14.1312 5.09723L13.5213 5.31299C13.6064 5.54223 13.7199 5.7445 13.8759 5.9198C13.2943 6.22995 12.5142 6.17601 12.0035 5.7445L11.7908 5.55571L11.5638 5.7445C11.0532 6.17601 10.273 6.22995 9.69149 5.9198C9.83333 5.7445 9.96099 5.54223 10.0461 5.31299L9.43617 5.11072C9.20922 5.71753 8.59929 6.13556 7.91844 6.13556C7.52128 6.13556 7.1383 6.00071 6.84043 5.7445L6.62766 5.55571L6.41489 5.7445C6.11702 5.98723 5.73404 6.13556 5.33688 6.13556C4.44326 6.13556 3.71986 5.44783 3.71986 4.5983C3.71986 4.05891 4.03191 3.54649 4.52837 3.27679L4.6844 3.1824V0.660752L5.97518 1.40241V3.1824L6.13121 3.27679C6.2305 3.33073 6.3156 3.39815 6.40071 3.46558L6.62766 3.64088L6.84043 3.45209C7.35106 3.02058 8.13121 2.96664 8.72695 3.27679C8.41489 3.64088 8.24468 4.09936 8.24468 4.5983H8.88298C8.88298 3.74876 9.60638 3.06104 10.5 3.06104C10.8972 3.06104 11.2801 3.19588 11.578 3.45209L11.7908 3.64088L12.0035 3.45209C12.3014 3.19588 12.6844 3.06104 13.0816 3.06104C13.961 3.06104 14.6844 3.74876 14.6844 4.5983H15.3227C15.3227 4.09936 15.1383 3.64088 14.8404 3.27679C15.422 2.96664 16.2021 3.02058 16.7269 3.45209L16.9397 3.64088L17.1525 3.45209C17.4504 3.19588 17.8333 3.06104 18.2305 3.06104C19.1241 3.06104 19.8475 3.74876 19.8475 4.5983C19.8475 4.86799 19.7624 5.13769 19.6348 5.36693C19.2518 5.08375 18.7695 4.90845 18.2447 4.90845V5.51526C19.1383 5.51526 19.8617 6.20298 19.8617 7.05252C19.8617 7.43009 19.7199 7.79418 19.4504 8.07736L19.2518 8.27963L19.4362 8.4819Z" fill="#961914"/>
</svg>
