<svg width="21" height="21" viewBox="0 0 21 21" fill="none" xmlns="http://www.w3.org/2000/svg">
<g clip-path="url(#clip0_6231_2787)">
<path d="M7.74214 8.89464C7.43489 7.81929 6.49854 7.08191 5.41587 7.08191C4.33321 7.08191 3.39685 7.81929 3.08961 8.89464C2.31419 9.40159 1.67045 10.1851 1.2169 11.1529C0.74872 12.1668 0.5 13.3496 0.5 14.594C0.5 16.2838 0.953548 17.8661 1.78749 19.0183C2.69459 20.2933 3.98208 20.9846 5.41587 20.9846C6.84967 20.9846 8.13716 20.2933 9.04426 19.0183C9.14667 18.88 9.11741 18.6957 8.98573 18.5881C8.85406 18.4806 8.67849 18.5113 8.57608 18.6496C7.78603 19.7556 6.65947 20.3701 5.41587 20.3701C4.17227 20.3701 3.04572 19.7556 2.25567 18.6496C1.49488 17.5896 1.08522 16.1456 1.08522 14.594C1.08522 13.4418 1.30468 12.3358 1.7436 11.4294C2.16789 10.523 2.76774 9.81636 3.49927 9.37086C3.57242 9.32478 3.61631 9.26333 3.63094 9.17116C3.83577 8.31088 4.5673 7.69639 5.41587 7.69639C6.26445 7.69639 7.01061 8.29552 7.2008 9.17116C7.21543 9.24797 7.27396 9.32478 7.33248 9.37086C8.06401 9.81636 8.66386 10.5384 9.08815 11.4294C9.51243 12.3511 9.74652 13.4418 9.74652 14.594C9.74652 15.6232 9.57096 16.6064 9.21982 17.4667C9.1613 17.6203 9.21982 17.8047 9.38076 17.8661C9.52707 17.9276 9.70263 17.8661 9.76116 17.6971C10.1416 16.76 10.3317 15.7001 10.3317 14.594C10.3317 13.3496 10.083 12.1514 9.61485 11.1529C9.17593 10.1851 8.51756 9.40159 7.74214 8.89464Z" fill="#961914"/>
<path d="M3.22097 12.6738C3.06003 12.6277 2.89909 12.7199 2.8552 12.8889C2.7089 13.4112 2.63574 13.9949 2.63574 14.5941C2.63574 17.0059 3.80619 18.7418 5.41555 18.7418C7.02491 18.7418 8.19536 16.9905 8.19536 14.5941C8.19536 12.1976 7.02491 10.4463 5.41555 10.4463C4.68402 10.4463 4.01102 10.815 3.51358 11.4909C3.41116 11.6292 3.44042 11.8135 3.55747 11.9211C3.68914 12.0286 3.86471 11.9979 3.96712 11.8596C4.36215 11.3373 4.85959 11.0608 5.41555 11.0608C6.68841 11.0608 7.61014 12.5509 7.61014 14.5941C7.61014 16.6372 6.68841 18.1273 5.41555 18.1273C4.14269 18.1273 3.22097 16.6372 3.22097 14.5941C3.22097 14.041 3.29412 13.5187 3.42579 13.0578C3.46968 12.8889 3.36727 12.7199 3.22097 12.6738Z" fill="#961914"/>
<path d="M19.2122 1.96635C18.3051 0.691295 17.0176 0 15.5838 0C14.15 0 12.8479 0.691295 11.9555 1.96635C11.3702 2.78054 10.9606 3.82516 10.785 4.97732C10.7411 5.13094 10.8582 5.29993 11.0191 5.33065C11.18 5.34601 11.3263 5.23848 11.3556 5.0695C11.5165 4.02487 11.8823 3.07242 12.4236 2.33504C13.2137 1.22897 14.3256 0.614484 15.5838 0.614484C16.8274 0.614484 17.954 1.22897 18.7441 2.33504C19.5048 3.39503 19.9145 4.83906 19.9145 6.39064C19.9145 7.54279 19.695 8.64887 19.2561 9.55523C18.8318 10.4616 18.232 11.1683 17.5005 11.6138C17.4273 11.6598 17.3834 11.7213 17.3688 11.8135C17.1639 12.6737 16.4324 13.2882 15.5838 13.2882C14.7353 13.2882 13.9891 12.6891 13.7989 11.8135C13.7697 11.7366 13.7258 11.6752 13.6526 11.6291C12.9211 11.1836 12.3212 10.4616 11.8969 9.57059C11.4727 8.64887 11.2532 7.54279 11.2532 6.39064C11.2532 6.22165 11.1215 6.08339 10.9606 6.08339C10.7996 6.08339 10.668 6.22165 10.668 6.39064C10.668 7.63497 10.9167 8.83321 11.3849 9.83175C11.8384 10.7996 12.4822 11.583 13.2576 12.09C13.5648 13.1653 14.5012 13.9027 15.5838 13.9027C16.6665 13.9027 17.6029 13.1653 17.9101 12.09C18.6855 11.583 19.3439 10.7996 19.7828 9.83175C20.251 8.83321 20.4997 7.63497 20.4997 6.39064C20.4997 4.7008 20.0315 3.13387 19.2122 1.96635Z" fill="#961914"/>
<path d="M17.8668 8.03444C18.0278 8.06516 18.1887 7.97299 18.218 7.804C18.3204 7.3585 18.3643 6.88228 18.3643 6.39069C18.3643 3.97884 17.1938 2.24292 15.5845 2.24292C13.9751 2.24292 12.79 3.9942 12.79 6.39069C12.79 8.78718 13.9605 10.5385 15.5698 10.5385C16.4331 10.5385 17.1938 10.0315 17.7205 9.12515C17.8083 8.97152 17.7498 8.78718 17.6181 8.71037C17.4718 8.6182 17.2963 8.67964 17.2231 8.8179C16.8134 9.53992 16.2282 9.93934 15.5845 9.93934C14.3116 9.93934 13.3899 8.44921 13.3899 6.40605C13.3899 4.36289 14.3116 2.87277 15.5845 2.87277C16.8573 2.87277 17.7791 4.36289 17.7791 6.40605C17.7791 6.85155 17.7352 7.28169 17.6474 7.68111C17.6035 7.83473 17.7059 8.00371 17.8668 8.03444Z" fill="#961914"/>
<path d="M4.78639 15.9766C4.78639 15.8076 4.65472 15.6693 4.49378 15.6693C4.33285 15.6693 4.20117 15.8076 4.20117 15.9766C4.20117 16.1455 4.33285 16.2838 4.49378 16.2838C4.65472 16.2838 4.78639 16.1455 4.78639 15.9766Z" fill="#961914"/>
<path d="M5.66468 17.144C5.82629 17.144 5.95729 17.0065 5.95729 16.8368C5.95729 16.6671 5.82629 16.5295 5.66468 16.5295C5.50308 16.5295 5.37207 16.6671 5.37207 16.8368C5.37207 17.0065 5.50308 17.144 5.66468 17.144Z" fill="#961914"/>
<path d="M6.1764 13.0117C6.33801 13.0117 6.46901 12.8741 6.46901 12.7045C6.46901 12.5348 6.33801 12.3972 6.1764 12.3972C6.0148 12.3972 5.88379 12.5348 5.88379 12.7045C5.88379 12.8741 6.0148 13.0117 6.1764 13.0117Z" fill="#961914"/>
<path d="M14.3555 5.02343C14.3555 5.19241 14.4871 5.33067 14.6481 5.33067C14.809 5.33067 14.9407 5.19241 14.9407 5.02343C14.9407 4.85445 14.809 4.71619 14.6481 4.71619C14.4871 4.71619 14.3555 4.85445 14.3555 5.02343Z" fill="#961914"/>
<path d="M15.818 4.47032C15.9796 4.47032 16.1106 4.33276 16.1106 4.16308C16.1106 3.99339 15.9796 3.85583 15.818 3.85583C15.6564 3.85583 15.5254 3.99339 15.5254 4.16308C15.5254 4.33276 15.6564 4.47032 15.818 4.47032Z" fill="#961914"/>
<path d="M16.3453 8.60277C16.507 8.60277 16.638 8.46521 16.638 8.29553C16.638 8.12584 16.507 7.98828 16.3453 7.98828C16.1837 7.98828 16.0527 8.12584 16.0527 8.29553C16.0527 8.46521 16.1837 8.60277 16.3453 8.60277Z" fill="#961914"/>
</g>
<defs>
<clipPath id="clip0_6231_2787">
<rect width="20" height="21" fill="white" transform="translate(0.5)"/>
</clipPath>
</defs>
</svg>
