<svg width="21" height="18" viewBox="0 0 21 18" fill="none" xmlns="http://www.w3.org/2000/svg">
<path d="M19.9007 9.82609C19.7222 9.45342 19.5054 9.0559 19.2631 8.65838C18.6128 7.59006 18.1155 6.59627 17.7203 5.61491C17.682 5.51553 17.631 5.41615 17.5927 5.31677C17.5162 5.1677 17.3377 5.11801 17.1975 5.18012C17.0444 5.25466 16.9934 5.42857 17.0572 5.56522C17.0955 5.65217 17.1337 5.72671 17.172 5.81366C17.5672 6.8323 18.09 7.85093 18.7531 8.9441C18.9954 9.32919 19.1994 9.71429 19.3652 10.0621C19.7349 10.8199 19.9134 11.4534 19.9134 11.9379C19.9134 14.9441 17.2995 17.4037 14.0862 17.4037C13.0789 17.4037 12.097 17.1553 11.2172 16.6957C11.7272 16.2609 12.1735 15.764 12.5561 15.205C13.2191 14.2112 13.6527 13.0559 13.8057 11.8385C14.0352 9.91304 13.5379 8.16149 12.5178 7.36646C11.8802 6.86957 11.2299 6.73292 10.6051 6.78261C10.7454 6.45963 10.8857 6.13665 11.0132 5.81366C11.2427 5.22981 11.6507 4.73292 12.1863 4.37267C12.7473 4 13.3976 3.80124 14.0862 3.80124C14.1754 3.80124 14.252 3.80124 14.3285 3.81366C15.119 3.86335 15.8586 4.18634 16.4196 4.7205C16.5344 4.8323 16.7257 4.8323 16.8404 4.7205C16.9552 4.6087 16.9552 4.42236 16.8404 4.31056C16.1901 3.68944 15.323 3.31677 14.405 3.25466C14.4687 2.45963 14.8385 1.60248 15.7183 1.29193C15.8713 1.24224 15.9479 1.06832 15.8968 0.919255C15.8458 0.770186 15.6673 0.695652 15.5143 0.745342C14.3667 1.15528 13.8822 2.26087 13.8184 3.25466C13.0916 3.29193 12.4285 3.51553 11.8547 3.90062C11.2172 4.32298 10.7326 4.91925 10.4521 5.61491C10.2864 6.03727 10.0823 6.48447 9.86557 6.93168C9.25352 7.09317 8.69247 7.40373 8.22068 7.65217C7.94015 7.80124 7.67238 7.95031 7.45561 8.02485C7.41736 7.54037 7.28984 7.04348 7.11133 6.58385C8.53945 6.44721 9.86557 5.70186 10.6944 4.54658C11.6125 3.29193 11.8547 1.6646 11.3575 0.198758C11.3192 0.0745342 11.2044 0 11.0769 0C9.49579 0.0372671 8.00391 0.807453 7.08583 2.06211C6.43552 2.96894 6.11674 4.06211 6.1805 5.14286C5.89997 4.86957 5.59395 4.68323 5.28792 4.6087C5.12215 4.55901 4.96914 4.65838 4.91814 4.80745C4.87988 4.95652 4.96914 5.11801 5.13491 5.1677C6.01473 5.40373 6.7288 6.81988 6.85631 8.01242C6.7543 7.97515 6.62679 7.91304 6.46102 7.82609C6.35901 7.7764 6.24425 7.71429 6.12949 7.65217C5.44093 7.2795 4.59936 6.8323 3.69403 6.78261C3.01822 6.74534 2.39342 6.9441 1.84512 7.37888C1.0928 7.95031 0.608259 9.06832 0.519001 10.4224C0.365988 12.5342 1.14381 14.6957 2.61018 16.2112C2.72494 16.323 2.91621 16.3354 3.03097 16.2236C3.14573 16.1118 3.15848 15.9255 3.04372 15.8137C1.6921 14.4099 0.96529 12.4099 1.10555 10.472C1.19481 9.2795 1.60285 8.29814 2.2149 7.82609C2.66119 7.49068 3.13298 7.32919 3.66853 7.36646C4.43359 7.40373 5.18591 7.80124 5.84897 8.16149C5.97648 8.2236 6.09124 8.28571 6.206 8.34783C6.39727 8.4472 6.55028 8.52174 6.69054 8.57143C6.86906 8.63354 7.03482 8.67081 7.17508 8.67081C7.54487 8.67081 7.9784 8.4472 8.51395 8.14907C9.57229 7.59006 10.8984 6.86957 12.1353 7.82609C12.9896 8.48447 13.4104 10.0621 13.2064 11.7764C13.0661 12.8944 12.6708 13.9752 12.0588 14.8944C11.3447 15.9627 10.3629 16.7702 9.13876 17.3292C8.87098 17.4534 8.57771 17.3913 8.22068 17.1553C7.9274 16.9565 7.59587 16.8571 7.25159 16.8323C7.23884 16.8323 7.22609 16.8323 7.21334 16.8323C6.8308 16.8199 6.44827 16.9317 6.12949 17.1553C5.77246 17.3913 5.47919 17.441 5.21141 17.3292C4.73962 17.118 4.29333 16.8571 3.8853 16.559C3.75779 16.4596 3.56652 16.4845 3.46451 16.6211C3.3625 16.7453 3.388 16.9317 3.52826 17.0311C3.9618 17.354 4.44635 17.6398 4.95639 17.8634C5.13491 17.9503 5.31342 17.9752 5.49194 17.9752C5.87447 17.9752 6.21875 17.8137 6.46102 17.6398C6.67779 17.4907 6.93281 17.4161 7.20059 17.4286C7.21334 17.4286 7.22609 17.4286 7.23884 17.4286C7.46836 17.441 7.69788 17.5155 7.88915 17.6398C8.25893 17.8882 8.80723 18.1242 9.39378 17.8634C9.86557 17.6522 10.3119 17.3913 10.7199 17.1056C11.7272 17.6894 12.8876 18 14.0862 18C17.631 18 20.5 15.2919 20.5 11.9627C20.5 11.3789 20.296 10.6584 19.9007 9.82609ZM7.31535 5.97516L9.03675 3.60248L10.4776 3.78882C10.4011 3.92547 10.3119 4.07453 10.2099 4.21118C9.53404 5.15528 8.4757 5.78882 7.31535 5.97516ZM9.53404 1.91304L9.13876 1.06832C9.54679 0.857143 9.99308 0.708075 10.4649 0.63354L9.53404 1.91304ZM10.9494 0.968944C11.0897 1.72671 11.0132 2.50932 10.7454 3.22981L9.43203 3.06832L10.9494 0.968944ZM8.62871 1.37888L9.15151 2.47205L8.66696 3.11801L8.27168 3.65217L7.67238 2.26087C7.94015 1.92547 8.25893 1.61491 8.62871 1.37888ZM7.27709 2.85714L7.86364 4.21118L6.8308 5.63975C6.66504 4.69565 6.81805 3.70186 7.27709 2.85714Z" fill="#961914"/>
</svg>
