<svg width="41" height="40" viewBox="0 0 41 40" fill="none" xmlns="http://www.w3.org/2000/svg">
<path d="M5.5 20H11.75L14.25 16.25L19.25 23.75L21.75 20H25.5" stroke="#961914" stroke-width="2" stroke-linecap="round" stroke-linejoin="round"/>
<path d="M4.89285 14.999C4.88103 14.7918 4.87508 14.5838 4.875 14.375C4.87532 12.4971 5.52602 10.6773 6.71648 9.22488C7.90693 7.77251 9.56366 6.77727 11.405 6.40836C13.2463 6.03945 15.1586 6.31965 16.8166 7.20131C18.4747 8.08298 19.7763 9.51169 20.5 11.2445L20.5 11.2446C21.2237 9.5117 22.5253 8.08299 24.1833 7.20132C25.8414 6.31965 27.7537 6.03945 29.595 6.40836C31.4363 6.77727 33.0931 7.77251 34.2835 9.22488C35.474 10.6772 36.1247 12.4971 36.125 14.375C36.125 25 20.5 33.75 20.5 33.75C20.5 33.75 14.2586 30.2549 9.66523 25.0002" stroke="#961914" stroke-width="2" stroke-linecap="round" stroke-linejoin="round"/>
</svg>
