<svg width="41" height="40" viewBox="0 0 41 40" fill="none" xmlns="http://www.w3.org/2000/svg">
<path d="M33.625 20C35.3509 20 36.75 18.6009 36.75 16.875C36.75 15.1491 35.3509 13.75 33.625 13.75C31.8991 13.75 30.5 15.1491 30.5 16.875C30.5 18.6009 31.8991 20 33.625 20Z" stroke="#961914" stroke-width="2" stroke-linecap="round" stroke-linejoin="round"/>
<path d="M7.375 20C9.10089 20 10.5 18.6009 10.5 16.875C10.5 15.1491 9.10089 13.75 7.375 13.75C5.64911 13.75 4.25 15.1491 4.25 16.875C4.25 18.6009 5.64911 20 7.375 20Z" stroke="#961914" stroke-width="2" stroke-linecap="round" stroke-linejoin="round"/>
<path d="M14.875 12.5C16.6009 12.5 18 11.1009 18 9.375C18 7.64911 16.6009 6.25 14.875 6.25C13.1491 6.25 11.75 7.64911 11.75 9.375C11.75 11.1009 13.1491 12.5 14.875 12.5Z" stroke="#961914" stroke-width="2" stroke-linecap="round" stroke-linejoin="round"/>
<path d="M26.125 12.5C27.8509 12.5 29.25 11.1009 29.25 9.375C29.25 7.64911 27.8509 6.25 26.125 6.25C24.3991 6.25 23 7.64911 23 9.375C23 11.1009 24.3991 12.5 26.125 12.5Z" stroke="#961914" stroke-width="2" stroke-linecap="round" stroke-linejoin="round"/>
<path d="M29.131 24.3521C27.5632 23.4813 26.4026 22.0267 25.9017 20.3046L25.9016 20.3048C25.5617 19.1353 24.8513 18.1077 23.8773 17.3765C22.9033 16.6453 21.7183 16.25 20.5004 16.25C19.2825 16.25 18.0975 16.6453 17.1235 17.3765C16.1495 18.1077 15.4391 19.1353 15.0992 20.3048L15.099 20.3046C14.5982 22.0267 13.4376 23.4813 11.8698 24.3521C10.7404 24.9643 9.88996 25.9876 9.49465 27.2098C9.09933 28.4321 9.18951 29.7596 9.74648 30.9172C10.3034 32.0748 11.2845 32.9737 12.4863 33.4275C13.688 33.8813 15.0184 33.8553 16.2015 33.3549C18.9561 32.2253 22.0446 32.2253 24.7993 33.3549C25.9825 33.8559 27.3131 33.8823 28.5153 33.4285C29.7174 32.9748 30.6988 32.0758 31.2559 30.918C31.813 29.7601 31.903 28.4323 31.5074 27.2098C31.1118 25.9873 30.2608 24.964 29.131 24.3521H29.131Z" stroke="#961914" stroke-width="2" stroke-linecap="round" stroke-linejoin="round"/>
</svg>
