<svg width="41" height="40" viewBox="0 0 41 40" fill="none" xmlns="http://www.w3.org/2000/svg">
<path d="M20.5 35C28.7843 35 35.5 28.2843 35.5 20C35.5 11.7157 28.7843 5 20.5 5C12.2157 5 5.5 11.7157 5.5 20C5.5 28.2843 12.2157 35 20.5 35Z" stroke="#961914" stroke-width="2" stroke-linecap="round" stroke-linejoin="round"/>
<path d="M26.9966 23.7494C26.3376 24.8891 25.3905 25.8354 24.2502 26.4933C23.1098 27.1512 21.8165 27.4976 20.5 27.4976C19.1835 27.4976 17.8902 27.1513 16.7499 26.4934C15.6096 25.8355 14.6624 24.8892 14.0034 23.7495" stroke="#961914" stroke-width="2" stroke-linecap="round" stroke-linejoin="round"/>
<path d="M14.875 18.75C15.9105 18.75 16.75 17.9105 16.75 16.875C16.75 15.8395 15.9105 15 14.875 15C13.8395 15 13 15.8395 13 16.875C13 17.9105 13.8395 18.75 14.875 18.75Z" fill="#961914"/>
<path d="M26.125 18.75C27.1605 18.75 28 17.9105 28 16.875C28 15.8395 27.1605 15 26.125 15C25.0895 15 24.25 15.8395 24.25 16.875C24.25 17.9105 25.0895 18.75 26.125 18.75Z" fill="#961914"/>
</svg>
