<svg width="149" height="454" viewBox="0 0 149 454" fill="none" xmlns="http://www.w3.org/2000/svg">
<path d="M53.3134 90.3083C58.6908 87.532 63.7121 84.1821 68.3809 80.37C69.0626 79.7891 68.0485 78.8474 67.3668 79.4283C62.8082 83.1809 57.8401 86.4453 52.5729 89.1622C51.7724 89.5519 52.5138 90.7259 53.3134 90.3083Z" fill="white"/>
<path d="M40.1495 81.1062C41.109 74.6593 42.6319 68.2768 44.6659 62.0722C44.9177 61.2269 43.5601 60.9105 43.2802 61.7567C41.2462 67.9613 39.7513 74.3428 38.7638 80.7908C38.654 81.687 40.0116 82.0034 40.1495 81.1062Z" fill="white"/>
<g clip-path="url(#clip0_6895_241)">
<path d="M-81.4527 422.438C-54.0839 417.951 -28.2066 406.168 -6.25128 389.356C16.1301 372.231 34.7795 349.629 46.3679 323.859C52.3823 310.471 56.4926 295.775 55.4347 280.998C54.3698 266.111 48.1256 252.013 40.2809 239.473C32.302 226.682 22.1807 214.752 9.90764 205.882C-1.27109 197.784 -15.0164 192.192 -29.0209 193.655C-50.7044 195.933 -71.6174 219.607 -61.1395 241.467C-58.2293 247.519 -53.4462 252.45 -48.1329 256.462C-42.3775 260.799 -35.7729 264.332 -28.8159 266.285C-15.45 270.049 -2.0532 266.486 9.11372 258.662C32.4653 242.342 45.316 213.173 48.4208 185.548C51.6621 156.778 44.1873 127.837 29.5268 103.038C15.5235 79.2826 -4.67509 59.226 -28.6633 45.5513C-51.8377 32.3464 -78.7099 25.1218 -105.436 27.0408C-111.9 27.5065 -118.37 28.5284 -124.665 30.0358C-125.602 30.2644 -125.228 31.7393 -124.276 31.4844C-98.8324 25.3619 -72.07 28.2907 -47.8543 37.9343C-23.4397 47.6577 -1.87582 63.9553 14.6528 84.3066C32.0678 105.729 44.2566 131.9 47.0308 159.526C49.8927 187.727 42.8361 217.408 25.6557 240.194C17.7213 250.724 7.20139 260.216 -5.52507 264.376C-19.5388 268.948 -33.7558 264.657 -45.5281 256.496C-56.1012 249.168 -64.7354 237.572 -61.9871 224.083C-59.757 213.128 -51.3734 203.941 -41.5869 198.993C-15.5985 185.804 12.3004 206.284 28.3859 225.645C37.9863 237.204 46.2104 250.662 50.7394 265.065C55.1643 279.163 54.7421 293.715 50.653 307.829C46.7467 321.384 40.1034 334.164 32.3295 345.871C24.809 357.199 15.9579 367.62 6.02156 376.889C-13.5644 395.173 -37.3458 409.146 -63.1036 416.662C-69.2947 418.474 -75.5705 419.887 -81.9463 420.929C-82.8004 421.135 -82.4119 422.584 -81.4527 422.438Z" fill="white"/>
</g>
<defs>
<clipPath id="clip0_6895_241">
<rect x="-27.6562" y="453.707" width="296" height="353" rx="2" transform="rotate(-150 -27.6562 453.707)" fill="white"/>
</clipPath>
</defs>
</svg>
