<svg width="235" height="314" viewBox="0 0 235 314" fill="none" xmlns="http://www.w3.org/2000/svg">
<path d="M111.578 292.198C108.309 297.291 105.635 302.703 103.498 308.338C103.198 309.182 104.547 309.491 104.847 308.647C106.919 303.118 109.589 297.807 112.792 292.82C113.29 292.082 112.061 291.436 111.578 292.198Z" fill="white"/>
<path d="M127.579 293.585C129.971 299.648 131.844 305.937 133.185 312.327C133.389 313.185 134.723 312.781 134.542 311.908C133.201 305.517 131.305 299.243 128.937 293.166C128.584 292.335 127.25 292.739 127.579 293.585Z" fill="white"/>
<g clip-path="url(#clip0_6895_239)">
<path d="M62.2242 -62.8181C40.7653 -45.2484 24.2467 -22.1048 13.6385 3.43186C2.81812 29.4532 -2.03136 58.3524 0.817711 86.464C2.30286 101.065 6.09152 115.848 14.3962 128.116C22.7616 140.476 35.2187 149.564 48.282 156.501C61.5877 163.589 76.318 168.86 91.3817 170.405C105.112 171.829 119.812 169.799 131.208 161.529C148.848 148.715 155.122 117.756 135.118 104.064C129.571 100.277 122.964 98.3992 116.357 97.5813C109.204 96.7029 101.717 96.9452 94.7157 98.7325C81.2584 102.156 71.4382 111.94 65.6795 124.299C53.6164 150.109 57.0717 181.795 68.1951 207.271C79.7733 233.807 100.717 255.133 125.813 269.28C149.818 282.851 177.339 290.121 204.95 289.97C231.623 289.818 258.507 282.639 280.693 267.614C286.058 263.979 291.15 259.859 295.848 255.406C296.545 254.74 295.484 253.649 294.787 254.346C275.813 272.37 251.172 283.215 225.379 286.971C199.374 290.757 172.55 287.425 148.06 278.065C122.267 268.22 98.6256 251.65 82.4102 229.112C65.831 206.12 57.102 176.887 60.5875 148.564C62.1939 135.477 66.5584 121.997 75.4997 112.031C85.3502 101.065 99.8077 97.6722 114.083 98.8537C126.904 99.9139 140.18 105.639 144.544 118.695C148.09 129.298 145.423 141.445 139.422 150.624C123.509 175.04 89.1085 171.253 65.4976 162.529C51.4038 157.318 37.5525 149.776 26.429 139.567C15.548 129.57 8.63749 116.757 5.12162 102.489C1.72699 88.7965 1.09049 74.4075 1.96946 60.382C2.81812 46.8109 5.27317 33.361 9.24368 20.3654C17.0635 -5.26212 30.6723 -29.2539 49.2216 -48.6412C53.677 -53.3062 58.4053 -57.6684 63.4063 -61.7579C64.0428 -62.3637 62.982 -63.424 62.2242 -62.8181Z" fill="white"/>
</g>
<defs>
<clipPath id="clip0_6895_239">
<rect width="296" height="290" rx="2" fill="white"/>
</clipPath>
</defs>
</svg>
