<svg width="24" height="24" viewBox="0 0 24 24" fill="none" xmlns="http://www.w3.org/2000/svg">
<path d="M4.25895 16.5934C3.14076 14.7084 2.74916 12.48 3.15768 10.3267C3.56621 8.17341 4.74675 6.24331 6.47764 4.89884C8.20852 3.55437 10.3707 2.88801 12.5581 3.0249C14.7455 3.16178 16.8078 4.09249 18.3575 5.64225C19.9073 7.19202 20.838 9.25423 20.9749 11.4417C21.1118 13.6291 20.4455 15.7912 19.101 17.5221C17.7565 19.253 15.8264 20.4336 13.6732 20.8421C11.5199 21.2507 9.29149 20.8591 7.40649 19.7409L7.40651 19.7408L4.29808 20.6289C4.16948 20.6657 4.03338 20.6673 3.90391 20.6338C3.77443 20.6002 3.65628 20.5327 3.56171 20.4381C3.46713 20.3435 3.39956 20.2254 3.36601 20.0959C3.33246 19.9664 3.33415 19.8303 3.37089 19.7017L4.25902 16.5933L4.25895 16.5934Z" stroke="white" stroke-linecap="round" stroke-linejoin="round"/>
<path d="M13.9378 16.5L13.9351 16.5C13.0897 16.5012 12.2523 16.3356 11.471 16.0126C10.6898 15.6896 9.9799 15.2157 9.38211 14.6179C8.78432 14.0201 8.31036 13.3102 7.9874 12.529C7.66443 11.7477 7.49881 10.9103 7.50001 10.0649L7.50001 10.064C7.5022 9.38288 7.77447 8.7304 8.25711 8.24972C8.7397 7.76908 9.39322 7.49947 10.0743 7.5M13.9378 16.5L10.9515 8.00919C10.8631 7.85451 10.7354 7.72594 10.5813 7.63652C10.4273 7.54717 10.2525 7.50008 10.0745 7.5C10.0744 7.5 10.0744 7.5 10.0743 7.5M13.9378 16.5C14.6177 16.4953 15.2682 16.2224 15.748 15.7406C16.2278 15.2589 16.4981 14.6073 16.5 13.9274V13.9259M13.9378 16.5L16.5 13.9259M10.0743 7.5C10.0742 7.5 10.0742 7.5 10.0741 7.5L10.0741 8L10.0743 7.5ZM16.5 13.9259C16.5 13.7478 16.4529 13.5728 16.3635 13.4187C16.2741 13.2646 16.1455 13.1369 15.9908 13.0485L14.4753 12.1825C14.3068 12.0862 14.1157 12.0366 13.9216 12.0386C13.7275 12.0407 13.5375 12.0944 13.3711 12.1943L12.4472 12.7486C11.9445 12.4699 11.5301 12.0555 11.2514 11.5528L11.8058 10.6289C11.9056 10.4625 11.9593 10.2725 11.9614 10.0784C11.9635 9.88432 11.9138 9.6932 11.8175 9.52469L10.9515 8.00919L16.5 13.9259ZM15.931 13.6697C15.9762 13.7475 16 13.8359 16 13.9259L15.7427 13.4826C15.8209 13.5273 15.8858 13.5918 15.931 13.6697Z" stroke="white" stroke-linecap="round" stroke-linejoin="round"/>
</svg>
